<svg baseProfile="full" class="opstree" height="100%" id="pathtree-0" version="1.1" viewBox="-80.00 -22.50 1989.00 495.00" width="100%" xmlns="http://www.w3.org/2000/svg" xmlns:ev="http://www.w3.org/2001/xml-events" xmlns:xlink="http://www.w3.org/1999/xlink"><defs><style type="text/css"><![CDATA[.opstree text, .movetree text {
    alignment-baseline: central;
    font-size: 10px;
    text-anchor: middle;
    font-family: Futura-CondensedMedium;
    font-weight: lighter;
    stroke: none !important;
}
.opstree .block text, .movetree .block text {
    alignment-baseline: central;
    font-size: 8px;
    text-anchor: middle;
    font-family: Futura-CondensedMedium;
    font-weight: lighter;
    stroke: none !important;
}
.opstree text.shadow {
    stroke-width: 3;
    stroke: white !important;
}
.opstree .left.label .shift text {
    text-anchor: end;
}
.opstree .right.label .shift text {
    text-anchor: start;
}
.opstree .block text, .movetree .block text {
    fill: white !important;
    stroke: none !important;
}
.opstree .block {
    stroke: none !important;
}
.opstree g.block:hover rect {
    opacity: 0.5;
}
.opstree .repex {
    fill: green;
    stroke: green;
}
.opstree .extend {
    fill: green;
    stroke: green;
}
.opstree .truncate {
    fill: green;
    stroke: green;
}
.opstree .new {
    fill: black;
    stroke: black;
}
.opstree .unknown {
    fill: gray;
    stroke: gray;
}
.opstree .hop {
    fill: green;
    stroke: green;
}
.opstree .correlation {
    fill: black;
    stroke: black;
}
.opstree .shooting.bw {
    fill: blue;
    stroke: blue;
}
.opstree .shooting.fw {
    fill: red;
    stroke: red;
}
.opstree .shooting.overlap {
    fill: #666;
    stroke: #666;
}
.opstree .reversal {
    fill: gold;
    stroke: gold;
}
.opstree .virtual {
    opacity: 0.1;
    fill:gray;
    stroke: none;
}
.opstree line {
    stroke-width: 2px;
}
.opstree .label {
    fill: black !important;
}
.opstree .h-connector {
    stroke-width: 0.1px;
    stroke-dasharray: 3 3;
}
.opstree .rejected {
    opacity: 0.25;
}
.opstree .level {
    opacity: 0.25;
}
.opstree .orange {
    fill: orange;
}
.tableline {
    fill: gray;
    opacity: 0.0;
}
.tableline:hover {
    opacity: 0.2;
}
.opstree .left.label g.shift {
    transform: translateX(-6px);
}
.opstree .right.label g.shift {
    transform: translateX(+6px);
}
.opstree .infobox text {
    text-anchor: start;
}
.opstree .shade {
    stroke: none;
}

.movetree .label .shift {
    transform: translateX(-18px);
}

.movetree .label text {
    text-anchor: end;
}
.movetree .v-connector {
    stroke: black;
}
.movetree .v-hook {
    stroke: black;
}
.movetree .h-connector {
    stroke: black;
}
.movetree .ensembles .head .shift {
    transform: translateY(0px) rotate(270deg) ;
}
.movetree .ensembles .head text {
    text-anchor: start;
}
.movetree .connector.input {
    fill: blue;
}
.movetree .connector.output {
    fill: red;
}
.movetree .unknown {
    fill: #aaa;
    /*stroke: white;*/
}
]]></style></defs><g transform="scale(1.0)"><g class="tree" transform="translate(867,15)"><g class="trajectory-label"><g class="unknown left label" transform="translate(0,0)"><g class="shift"><text x="0" y="0">+</text></g></g><g class="shooting left label" transform="translate(0,15)"><g class="shift"><text x="0" y="0">B</text></g></g><g class="shooting right label" transform="translate(260,30)"><g class="shift"><text x="0" y="0">F</text></g></g><g class="shooting left label" transform="translate(-75,45)"><g class="shift"><text x="0" y="0">B</text></g></g><g class="shooting right label" transform="translate(500,60)"><g class="shift"><text x="0" y="0">F</text></g></g><g class="shooting left label" transform="translate(90,75)"><g class="shift"><text x="0" y="0">B</text></g></g><g class="shooting left label" transform="translate(360,90)"><g class="shift"><text x="0" y="0">B</text></g></g><g class="shooting right label" transform="translate(565,105)"><g class="shift"><text x="0" y="0">F</text></g></g><g class="shooting left label" transform="translate(295,120)"><g class="shift"><text x="0" y="0">B</text></g></g><g class="shooting left label" transform="translate(375,135)"><g class="shift"><text x="0" y="0">B</text></g></g><g class="shooting right label" transform="translate(565,150)"><g class="shift"><text x="0" y="0">F</text></g></g><g class="shooting right label" transform="translate(845,165)"><g class="shift"><text x="0" y="0">F</text></g></g><g class="shooting left label" transform="translate(295,180)"><g class="shift"><text x="0" y="0">B</text></g></g><g class="shooting right label" transform="translate(1005,195)"><g class="shift"><text x="0" y="0">F</text></g></g><g class="shooting right label" transform="translate(750,210)"><g class="shift"><text x="0" y="0">F</text></g></g><g class="shooting left label" transform="translate(-680,225)"><g class="shift"><text x="0" y="0">B</text></g></g><g class="shooting right label" transform="translate(-180,240)"><g class="shift"><text x="0" y="0">F</text></g></g><g class="shooting right label" transform="translate(665,255)"><g class="shift"><text x="0" y="0">F</text></g></g><g class="shooting right label" transform="translate(650,270)"><g class="shift"><text x="0" y="0">F</text></g></g><g class="shooting right label" transform="translate(220,285)"><g class="shift"><text x="0" y="0">F</text></g></g><g class="shooting right label" transform="translate(175,300)"><g class="shift"><text x="0" y="0">F</text></g></g><g class="shooting right label" transform="translate(150,315)"><g class="shift"><text x="0" y="0">F</text></g></g><g class="shooting left label" transform="translate(-815,330)"><g class="shift"><text x="0" y="0">B</text></g></g><g class="shooting right label" transform="translate(165,345)"><g class="shift"><text x="0" y="0">F</text></g></g><g class="shooting left label" transform="translate(-570,360)"><g class="shift"><text x="0" y="0">B</text></g></g><g class="shooting left label" transform="translate(-570,375)"><g class="shift"><text x="0" y="0">B</text></g></g><g class="shooting right label" transform="translate(790,390)"><g class="shift"><text x="0" y="0">F</text></g></g><g class="shooting right label" transform="translate(440,405)"><g class="shift"><text x="0" y="0">F</text></g></g><g class="shooting left label" transform="translate(-820,420)"><g class="shift"><text x="0" y="0">B</text></g></g><g class="shooting right label" transform="translate(-605,435)"><g class="shift"><text x="0" y="0">F</text></g></g><g class="shooting left label" transform="translate(-830,450)"><g class="shift"><text x="0" y="0">B</text></g></g></g><g class="shooting-hooks"><line class="shooting bw connection v-connector" x1="7.5" x2="7.5" y1="0.0" y2="15.0" /><line class="shooting fw connection v-connector" x1="27.5" x2="27.5" y1="0.0" y2="30.0" /><line class="shooting bw connection v-connector" x1="27.5" x2="27.5" y1="30.0" y2="45.0" /><line class="shooting fw connection v-connector" x1="72.5" x2="72.5" y1="30.0" y2="60.0" /><line class="shooting bw connection v-connector" x1="287.5" x2="287.5" y1="60.0" y2="75.0" /><line class="shooting bw connection v-connector" x1="462.5" x2="462.5" y1="60.0" y2="90.0" /><line class="shooting fw connection v-connector" x1="417.5" x2="417.5" y1="90.0" y2="105.0" /><line class="shooting bw connection v-connector" x1="547.5" x2="547.5" y1="105.0" y2="120.0" /><line class="shooting bw connection v-connector" x1="512.5" x2="512.5" y1="120.0" y2="135.0" /><line class="shooting fw connection v-connector" x1="512.5" x2="512.5" y1="135.0" y2="150.0" /><line class="shooting fw connection v-connector" x1="487.5" x2="487.5" y1="135.0" y2="165.0" /><line class="shooting bw connection v-connector" x1="727.5" x2="727.5" y1="165.0" y2="180.0" /><line class="shooting fw connection v-connector" x1="727.5" x2="727.5" y1="180.0" y2="195.0" /><line class="shooting fw connection v-connector" x1="677.5" x2="677.5" y1="180.0" y2="210.0" /><line class="shooting bw connection v-connector" x1="417.5" x2="417.5" y1="180.0" y2="225.0" /><line class="shooting fw connection v-connector" x1="-442.5" x2="-442.5" y1="225.0" y2="240.0" /><line class="shooting fw connection v-connector" x1="-432.5" x2="-432.5" y1="240.0" y2="255.0" /><line class="shooting fw connection v-connector" x1="182.5" x2="182.5" y1="255.0" y2="270.0" /><line class="shooting fw connection v-connector" x1="-412.5" x2="-412.5" y1="255.0" y2="285.0" /><line class="shooting fw connection v-connector" x1="-482.5" x2="-482.5" y1="225.0" y2="300.0" /><line class="shooting fw connection v-connector" x1="-37.5" x2="-37.5" y1="300.0" y2="315.0" /><line class="shooting bw connection v-connector" x1="-517.5" x2="-517.5" y1="225.0" y2="330.0" /><line class="shooting fw connection v-connector" x1="82.5" x2="82.5" y1="315.0" y2="345.0" /><line class="shooting bw connection v-connector" x1="107.5" x2="107.5" y1="345.0" y2="360.0" /><line class="shooting bw connection v-connector" x1="-562.5" x2="-562.5" y1="360.0" y2="375.0" /><line class="shooting fw connection v-connector" x1="-517.5" x2="-517.5" y1="360.0" y2="390.0" /><line class="shooting fw connection v-connector" x1="-62.5" x2="-62.5" y1="390.0" y2="405.0" /><line class="shooting bw connection v-connector" x1="-447.5" x2="-447.5" y1="390.0" y2="420.0" /><line class="shooting fw connection v-connector" x1="-742.5" x2="-742.5" y1="420.0" y2="435.0" /><line class="shooting bw connection v-connector" x1="-802.5" x2="-802.5" y1="420.0" y2="450.0" /></g><g class="snapshot-blocks"><g class="unknown new block"><rect height="9.0" width="70.0" x="-2.5" y="-4.5" /><circle cx="67.5" cy="0" r="0.0" /><text x="32.5" y="0" /></g><g class="shooting bw block"><rect height="9.0" width="10.0" x="-2.5" y="10.5" /><circle cx="7.5" cy="15" r="0.0" /><text x="2.5" y="15" /></g><g class="shooting fw block"><rect height="9.0" width="235.0" x="27.5" y="25.5" /><circle cx="262.5" cy="30" r="0.0" /><text x="145.0" y="30" /></g><g class="shooting bw block"><rect height="9.0" width="105.0" x="-77.5" y="40.5" /><circle cx="27.5" cy="45" r="0.0" /><text x="-25.0" y="45" /></g><g class="shooting fw block"><rect height="9.0" width="430.0" x="72.5" y="55.5" /><circle cx="502.5" cy="60" r="0.0" /><text x="287.5" y="60" /></g><g class="shooting bw block"><rect height="9.0" width="200.0" x="87.5" y="70.5" /><circle cx="287.5" cy="75" r="0.0" /><text x="187.5" y="75" /></g><g class="shooting bw block"><rect height="9.0" width="105.0" x="357.5" y="85.5" /><circle cx="462.5" cy="90" r="0.0" /><text x="410.0" y="90" /></g><g class="shooting fw block"><rect height="9.0" width="150.0" x="417.5" y="100.5" /><circle cx="567.5" cy="105" r="0.0" /><text x="492.5" y="105" /></g><g class="shooting bw block"><rect height="9.0" width="255.0" x="292.5" y="115.5" /><circle cx="547.5" cy="120" r="0.0" /><text x="420.0" y="120" /></g><g class="shooting bw block"><rect height="9.0" width="140.0" x="372.5" y="130.5" /><circle cx="512.5" cy="135" r="0.0" /><text x="442.5" y="135" /></g><g class="shooting fw block"><rect height="9.0" width="55.0" x="512.5" y="145.5" /><circle cx="567.5" cy="150" r="0.0" /><text x="540.0" y="150" /></g><g class="shooting fw block"><rect height="9.0" width="360.0" x="487.5" y="160.5" /><circle cx="847.5" cy="165" r="0.0" /><text x="667.5" y="165" /></g><g class="shooting bw block"><rect height="9.0" width="435.0" x="292.5" y="175.5" /><circle cx="727.5" cy="180" r="0.0" /><text x="510.0" y="180" /></g><g class="shooting fw block"><rect height="9.0" width="280.0" x="727.5" y="190.5" /><circle cx="1007.5" cy="195" r="0.0" /><text x="867.5" y="195" /></g><g class="shooting fw block"><rect height="9.0" width="75.0" x="677.5" y="205.5" /><circle cx="752.5" cy="210" r="0.0" /><text x="715.0" y="210" /></g><g class="shooting bw block"><rect height="9.0" width="1100.0" x="-682.5" y="220.5" /><circle cx="417.5" cy="225" r="0.0" /><text x="-132.5" y="225" /></g><g class="shooting fw block"><rect height="9.0" width="265.0" x="-442.5" y="235.5" /><circle cx="-177.5" cy="240" r="0.0" /><text x="-310.0" y="240" /></g><g class="shooting fw block"><rect height="9.0" width="1100.0" x="-432.5" y="250.5" /><circle cx="667.5" cy="255" r="0.0" /><text x="117.5" y="255" /></g><g class="shooting fw block"><rect height="9.0" width="470.0" x="182.5" y="265.5" /><circle cx="652.5" cy="270" r="0.0" /><text x="417.5" y="270" /></g><g class="shooting fw block"><rect height="9.0" width="635.0" x="-412.5" y="280.5" /><circle cx="222.5" cy="285" r="0.0" /><text x="-95.0" y="285" /></g><g class="shooting fw block"><rect height="9.0" width="660.0" x="-482.5" y="295.5" /><circle cx="177.5" cy="300" r="0.0" /><text x="-152.5" y="300" /></g><g class="shooting fw block"><rect height="9.0" width="190.0" x="-37.5" y="310.5" /><circle cx="152.5" cy="315" r="0.0" /><text x="57.5" y="315" /></g><g class="shooting bw block"><rect height="9.0" width="300.0" x="-817.5" y="325.5" /><circle cx="-517.5" cy="330" r="0.0" /><text x="-667.5" y="330" /></g><g class="shooting fw block"><rect height="9.0" width="85.0" x="82.5" y="340.5" /><circle cx="167.5" cy="345" r="0.0" /><text x="125.0" y="345" /></g><g class="shooting bw block"><rect height="9.0" width="680.0" x="-572.5" y="355.5" /><circle cx="107.5" cy="360" r="0.0" /><text x="-232.5" y="360" /></g><g class="shooting bw block"><rect height="9.0" width="10.0" x="-572.5" y="370.5" /><circle cx="-562.5" cy="375" r="0.0" /><text x="-567.5" y="375" /></g><g class="shooting fw block"><rect height="9.0" width="1310.0" x="-517.5" y="385.5" /><circle cx="792.5" cy="390" r="0.0" /><text x="137.5" y="390" /></g><g class="shooting fw block"><rect height="9.0" width="505.0" x="-62.5" y="400.5" /><circle cx="442.5" cy="405" r="0.0" /><text x="190.0" y="405" /></g><g class="shooting bw block"><rect height="9.0" width="375.0" x="-822.5" y="415.5" /><circle cx="-447.5" cy="420" r="0.0" /><text x="-635.0" y="420" /></g><g class="shooting fw block"><rect height="9.0" width="140.0" x="-742.5" y="430.5" /><circle cx="-602.5" cy="435" r="0.0" /><text x="-672.5" y="435" /></g><g class="shooting bw block"><rect height="9.0" width="30.0" x="-832.5" y="445.5" /><circle cx="-802.5" cy="450" r="0.0" /><text x="-817.5" y="450" /></g></g></g><g class="legend"><g class="legend-correlation" transform="translate(0)"><g class="head label" transform="translate(0,0)"><g class="shift"><text x="0" y="0">cor</text></g></g><g class="correlation v-region"><line x1="0" x2="0" y1="7.5" y2="52.5" /><circle cx="0" cy="7.5" r="2.24" /><line x1="-6.4" x2="6.4" y1="7.5" y2="7.5" /><circle cx="0" cy="52.5" r="2.24" /><line x1="-6.4" x2="6.4" y1="52.5" y2="52.5" /><text x="-6.4" y="30.0" /></g><g class="correlation v-region"><line x1="0" x2="0" y1="52.5" y2="82.5" /><circle cx="0" cy="52.5" r="2.24" /><line x1="-6.4" x2="6.4" y1="52.5" y2="52.5" /><circle cx="0" cy="82.5" r="2.24" /><line x1="-6.4" x2="6.4" y1="82.5" y2="82.5" /><text x="-6.4" y="67.5" /></g><g class="correlation v-region"><line x1="0" x2="0" y1="82.5" y2="112.5" /><circle cx="0" cy="82.5" r="2.24" /><line x1="-6.4" x2="6.4" y1="82.5" y2="82.5" /><circle cx="0" cy="112.5" r="2.24" /><line x1="-6.4" x2="6.4" y1="112.5" y2="112.5" /><text x="-6.4" y="97.5" /></g><g class="correlation v-region"><line x1="0" x2="0" y1="112.5" y2="157.5" /><circle cx="0" cy="112.5" r="2.24" /><line x1="-6.4" x2="6.4" y1="112.5" y2="112.5" /><circle cx="0" cy="157.5" r="2.24" /><line x1="-6.4" x2="6.4" y1="157.5" y2="157.5" /><text x="-6.4" y="135.0" /></g><g class="correlation v-region"><line x1="0" x2="0" y1="157.5" y2="187.5" /><circle cx="0" cy="157.5" r="2.24" /><line x1="-6.4" x2="6.4" y1="157.5" y2="157.5" /><circle cx="0" cy="187.5" r="2.24" /><line x1="-6.4" x2="6.4" y1="187.5" y2="187.5" /><text x="-6.4" y="172.5" /></g><g class="correlation v-region"><line x1="0" x2="0" y1="187.5" y2="247.5" /><circle cx="0" cy="187.5" r="2.24" /><line x1="-6.4" x2="6.4" y1="187.5" y2="187.5" /><circle cx="0" cy="247.5" r="2.24" /><line x1="-6.4" x2="6.4" y1="247.5" y2="247.5" /><text x="-6.4" y="217.5" /></g><g class="correlation v-region"><line x1="0" x2="0" y1="247.5" y2="367.5" /><circle cx="0" cy="247.5" r="2.24" /><line x1="-6.4" x2="6.4" y1="247.5" y2="247.5" /><circle cx="0" cy="367.5" r="2.24" /><line x1="-6.4" x2="6.4" y1="367.5" y2="367.5" /><text x="-6.4" y="307.5" /></g><g class="correlation v-region"><line x1="0" x2="0" y1="367.5" y2="427.5" /><circle cx="0" cy="367.5" r="2.24" /><line x1="-6.4" x2="6.4" y1="367.5" y2="367.5" /><circle cx="0" cy="427.5" r="2.24" /><line x1="-6.4" x2="6.4" y1="427.5" y2="427.5" /><text x="-6.4" y="397.5" /></g><g class="correlation v-region"><line x1="0" x2="0" y1="427.5" y2="472.5" /><circle cx="0" cy="427.5" r="2.24" /><line x1="-6.4" x2="6.4" y1="427.5" y2="427.5" /><text x="-6.4" y="450.0" /></g></g><g class="legend-step" transform="translate(-32)"><g class="head label" transform="translate(0,0)"><g class="shift"><text x="0" y="0">step</text></g></g><g class="label" transform="translate(0,15)"><g class="shift"><text x="0" y="0">0</text></g></g><g class="label" transform="translate(0,30)"><g class="shift"><text x="0" y="0">12</text></g></g><g class="label" transform="translate(0,45)"><g class="shift"><text x="0" y="0">24</text></g></g><g class="label" transform="translate(0,60)"><g class="shift"><text x="0" y="0">35</text></g></g><g class="label" transform="translate(0,75)"><g class="shift"><text x="0" y="0">57</text></g></g><g class="label" transform="translate(0,90)"><g class="shift"><text x="0" y="0">61</text></g></g><g class="label" transform="translate(0,105)"><g class="shift"><text x="0" y="0">62</text></g></g><g class="label" transform="translate(0,120)"><g class="shift"><text x="0" y="0">74</text></g></g><g class="label" transform="translate(0,135)"><g class="shift"><text x="0" y="0">97</text></g></g><g class="label" transform="translate(0,150)"><g class="shift"><text x="0" y="0">109</text></g></g><g class="label" transform="translate(0,165)"><g class="shift"><text x="0" y="0">122</text></g></g><g class="label" transform="translate(0,180)"><g class="shift"><text x="0" y="0">166</text></g></g><g class="label" transform="translate(0,195)"><g class="shift"><text x="0" y="0">191</text></g></g><g class="label" transform="translate(0,210)"><g class="shift"><text x="0" y="0">202</text></g></g><g class="label" transform="translate(0,225)"><g class="shift"><text x="0" y="0">224</text></g></g><g class="label" transform="translate(0,240)"><g class="shift"><text x="0" y="0">232</text></g></g><g class="label" transform="translate(0,255)"><g class="shift"><text x="0" y="0">239</text></g></g><g class="label" transform="translate(0,270)"><g class="shift"><text x="0" y="0">247</text></g></g><g class="label" transform="translate(0,285)"><g class="shift"><text x="0" y="0">250</text></g></g><g class="label" transform="translate(0,300)"><g class="shift"><text x="0" y="0">265</text></g></g><g class="label" transform="translate(0,315)"><g class="shift"><text x="0" y="0">312</text></g></g><g class="label" transform="translate(0,330)"><g class="shift"><text x="0" y="0">317</text></g></g><g class="label" transform="translate(0,345)"><g class="shift"><text x="0" y="0">323</text></g></g><g class="label" transform="translate(0,360)"><g class="shift"><text x="0" y="0">373</text></g></g><g class="label" transform="translate(0,375)"><g class="shift"><text x="0" y="0">398</text></g></g><g class="label" transform="translate(0,390)"><g class="shift"><text x="0" y="0">423</text></g></g><g class="label" transform="translate(0,405)"><g class="shift"><text x="0" y="0">464</text></g></g><g class="label" transform="translate(0,420)"><g class="shift"><text x="0" y="0">475</text></g></g><g class="label" transform="translate(0,435)"><g class="shift"><text x="0" y="0">477</text></g></g><g class="label" transform="translate(0,450)"><g class="shift"><text x="0" y="0">482</text></g></g><g class="label" transform="translate(0,465)"><g class="shift"><text x="0" y="0">491</text></g></g></g></g><g class="hovering-blocks"><rect class="tableline" height="13.5" width="1989.0" x="-80.0" y="8.25" /><rect class="tableline" height="13.5" width="1989.0" x="-80.0" y="23.25" /><rect class="tableline" height="13.5" width="1989.0" x="-80.0" y="38.25" /><rect class="tableline" height="13.5" width="1989.0" x="-80.0" y="53.25" /><rect class="tableline" height="13.5" width="1989.0" x="-80.0" y="68.25" /><rect class="tableline" height="13.5" width="1989.0" x="-80.0" y="83.25" /><rect class="tableline" height="13.5" width="1989.0" x="-80.0" y="98.25" /><rect class="tableline" height="13.5" width="1989.0" x="-80.0" y="113.25" /><rect class="tableline" height="13.5" width="1989.0" x="-80.0" y="128.25" /><rect class="tableline" height="13.5" width="1989.0" x="-80.0" y="143.25" /><rect class="tableline" height="13.5" width="1989.0" x="-80.0" y="158.25" /><rect class="tableline" height="13.5" width="1989.0" x="-80.0" y="173.25" /><rect class="tableline" height="13.5" width="1989.0" x="-80.0" y="188.25" /><rect class="tableline" height="13.5" width="1989.0" x="-80.0" y="203.25" /><rect class="tableline" height="13.5" width="1989.0" x="-80.0" y="218.25" /><rect class="tableline" height="13.5" width="1989.0" x="-80.0" y="233.25" /><rect class="tableline" height="13.5" width="1989.0" x="-80.0" y="248.25" /><rect class="tableline" height="13.5" width="1989.0" x="-80.0" y="263.25" /><rect class="tableline" height="13.5" width="1989.0" x="-80.0" y="278.25" /><rect class="tableline" height="13.5" width="1989.0" x="-80.0" y="293.25" /><rect class="tableline" height="13.5" width="1989.0" x="-80.0" y="308.25" /><rect class="tableline" height="13.5" width="1989.0" x="-80.0" y="323.25" /><rect class="tableline" height="13.5" width="1989.0" x="-80.0" y="338.25" /><rect class="tableline" height="13.5" width="1989.0" x="-80.0" y="353.25" /><rect class="tableline" height="13.5" width="1989.0" x="-80.0" y="368.25" /><rect class="tableline" height="13.5" width="1989.0" x="-80.0" y="383.25" /><rect class="tableline" height="13.5" width="1989.0" x="-80.0" y="398.25" /><rect class="tableline" height="13.5" width="1989.0" x="-80.0" y="413.25" /><rect class="tableline" height="13.5" width="1989.0" x="-80.0" y="428.25" /><rect class="tableline" height="13.5" width="1989.0" x="-80.0" y="443.25" /><rect class="tableline" height="13.5" width="1989.0" x="-80.0" y="458.25" /></g></g></svg>